<svg width="1440" height="499" viewBox="0 0 1440 499" fill="none" xmlns="http://www.w3.org/2000/svg">
<path d="M380 0L779 326.5L40.5 270.5L380 0Z" fill="#162454"/>
<path d="M395.5 23L794.5 349.5L228.5 120.5L395.5 23Z" fill="white"/>
<path d="M0 218L401 30L772.5 321.5V494H0V218Z" fill="#152032"/>
<path d="M0 218L401 30L772.5 321.5V494H0V218Z" fill="#152032"/>
<path d="M0 17L503 268L0 395.5V17Z" fill="#162454"/>
<path d="M784 115.5L955 211.5L633 340.5L784 115.5Z" fill="#162454"/>
<path d="M1440.5 20V228H1115.5L1440.5 20Z" fill="#162454"/>
<path d="M2 368.838V54L620 312L807.44 120.881L1081 240.702L1441 54V499V467.14H2V368.838Z" fill="#304B74"/>
<path d="M2 368.838V54L620 312L807.44 120.881L1081 240.702L1441 54V499V467.14H2V368.838Z" fill="#304B74"/>
<path d="M1040 120.5L1439 447L700.5 391L1040 120.5Z" fill="#162454"/>
<path d="M1 172L528 492.5H1V172Z" fill="#162454"/>
<path d="M1063 149L1462 475.5L770 341L1063 149Z" fill="white"/>
<path d="M0 226L472.5 468L1068.5 156.5L1440 448V499H0V226Z" fill="#152032"/>
<path d="M0 226L472.5 468L1068.5 156.5L1440 448V499H0V226Z" fill="#152032"/>
</svg>
