<svg width="1440" height="583" viewBox="0 0 1440 583" fill="none" xmlns="http://www.w3.org/2000/svg">
<path d="M380 84L779 410.5L40.5 354.5L380 84Z" fill="#162454"/>
<path d="M0 302L401 114L772.5 405.5V578H0V302Z" fill="#152032"/>
<path d="M0 302L401 114L772.5 405.5V578H0V302Z" fill="#152032"/>
<path d="M0 0L503 352L0 479.5V0Z" fill="#162454"/>
<path d="M784 199.5L955 295.5L633 424.5L784 199.5Z" fill="#162454"/>
<path d="M1440.5 24V312H1115.5L1440.5 24Z" fill="#162454"/>
<path d="M2 452.838V43L637 405.887L807.44 204.881L1081 324.702L1441 63.5408V583V551.14H2V452.838Z" fill="#304B74"/>
<path d="M2 452.838V43L637 405.887L807.44 204.881L1081 324.702L1441 63.5408V583V551.14H2V452.838Z" fill="#304B74"/>
<path d="M1040 204.5L1439 531L700.5 475L1040 204.5Z" fill="#162454"/>
<path d="M1 210L528 576.5H1V210Z" fill="#162454"/>
<path d="M0 310L472.5 552L1068.5 240.5L1440 532V583H0V310Z" fill="#152032"/>
<path d="M0 310L472.5 552L1068.5 240.5L1440 532V583H0V310Z" fill="#152032"/>
</svg>
