<svg width="1440" height="742" viewBox="0 0 1440 742" fill="none" xmlns="http://www.w3.org/2000/svg">
<path d="M380 85L779 411.5L40.5 355.5L380 85Z" fill="#162454"/>
<path d="M0 303L401 115L772.5 406.5V615H0V303Z" fill="#152032"/>
<path d="M0 303L401 115L772.5 406.5V615H0V303Z" fill="#152032"/>
<path d="M2 0L505 352L2 479.5V0Z" fill="#162454"/>
<path d="M784 200.5L955 296.5L633 425.5L784 200.5Z" fill="#162454"/>
<path d="M1440.5 25V313H1115.5L1440.5 25Z" fill="#162454"/>
<path d="M1.5 463V44L636.5 415L806.94 209.5L1080.5 332L1440.5 65V596.072V742H1.5V463Z" fill="#304B74"/>
<path d="M1.5 463V44L636.5 415L806.94 209.5L1080.5 332L1440.5 65V596.072V742H1.5V463Z" fill="#304B74"/>
<path d="M1040 205.5L1439 532L700.5 476L1040 205.5Z" fill="#162454"/>
<path d="M1 211L528 577.5L1 625V211Z" fill="#162454"/>
<path d="M0 311L472.5 553L1068.5 241.5L1440 533V741.5H0V311Z" fill="#152032"/>
<path d="M0 311L472.5 553L1068.5 241.5L1440 533V741.5H0V311Z" fill="#152032"/>
</svg>
